<svg width="40" height="450" viewBox="0 0 40 450" fill="none" xmlns="http://www.w3.org/2000/svg">
<rect y="450" width="450" height="4" transform="rotate(-90 0 450)" fill="#F5F5F5"/>
<rect y="150" width="150" height="4" transform="rotate(-90 0 150)" fill="black"/>
<path d="M26.7695 12.0391V14.8281C26.7695 16.1641 26.6523 17.3047 26.418 18.25C26.1914 19.1875 25.8672 19.9492 25.4453 20.5352C25.0312 21.1211 24.5312 21.5508 23.9453 21.8242C23.3672 22.0977 22.7227 22.2344 22.0117 22.2344C21.4492 22.2344 20.9219 22.1484 20.4297 21.9766C19.9375 21.8047 19.4922 21.5352 19.0938 21.168C18.7031 20.8008 18.3672 20.3281 18.0859 19.75C17.8125 19.1641 17.5977 18.4648 17.4414 17.6523C17.293 16.8398 17.2188 15.8984 17.2188 14.8281V12.0391C17.2188 10.6953 17.3359 9.5625 17.5703 8.64062C17.8047 7.71094 18.1328 6.95703 18.5547 6.37891C18.9766 5.79297 19.4766 5.36719 20.0547 5.10156C20.6406 4.83594 21.2891 4.70312 22 4.70312C22.5625 4.70312 23.0898 4.78906 23.582 4.96094C24.0742 5.125 24.5156 5.38672 24.9062 5.74609C25.2969 6.10547 25.6328 6.57422 25.9141 7.15234C26.1953 7.72266 26.4062 8.41406 26.5469 9.22656C26.6953 10.0312 26.7695 10.9688 26.7695 12.0391ZM24.0508 15.2383V11.6055C24.0508 10.9336 24.0195 10.3398 23.957 9.82422C23.8945 9.30859 23.8086 8.87109 23.6992 8.51172C23.5977 8.15234 23.4609 7.86328 23.2891 7.64453C23.1172 7.41797 22.9219 7.25391 22.7031 7.15234C22.4922 7.04297 22.2578 6.98828 22 6.98828C21.6797 6.98828 21.3906 7.07031 21.1328 7.23438C20.8828 7.39844 20.668 7.66406 20.4883 8.03125C20.3164 8.39062 20.1836 8.86719 20.0898 9.46094C19.9961 10.0469 19.9492 10.7617 19.9492 11.6055V15.2383C19.9492 15.918 19.9805 16.5156 20.043 17.0312C20.1055 17.5469 20.1953 17.9922 20.3125 18.3672C20.4297 18.7344 20.5703 19.0352 20.7344 19.2695C20.8984 19.4961 21.0859 19.6641 21.2969 19.7734C21.5156 19.8828 21.7539 19.9375 22.0117 19.9375C22.3398 19.9375 22.6289 19.8516 22.8789 19.6797C23.1367 19.5078 23.3516 19.2383 23.5234 18.8711C23.6953 18.4961 23.8242 18.0078 23.9102 17.4062C24.0039 16.8047 24.0508 16.082 24.0508 15.2383ZM36.0039 4.87891V22H33.2734V8.30078L29.875 9.70703V7.32812L35.6758 4.87891H36.0039Z" fill="black"/>
</svg>
