<svg width="40" height="450" viewBox="0 0 40 450" fill="none" xmlns="http://www.w3.org/2000/svg">
<rect y="450" width="450" height="4" transform="rotate(-90 0 450)" fill="#F5F5F5"/>
<rect y="300" width="150" height="4" transform="rotate(-90 0 300)" fill="black"/>
<path d="M26.7695 162.039V164.828C26.7695 166.164 26.6523 167.305 26.418 168.25C26.1914 169.188 25.8672 169.949 25.4453 170.535C25.0312 171.121 24.5312 171.551 23.9453 171.824C23.3672 172.098 22.7227 172.234 22.0117 172.234C21.4492 172.234 20.9219 172.148 20.4297 171.977C19.9375 171.805 19.4922 171.535 19.0938 171.168C18.7031 170.801 18.3672 170.328 18.0859 169.75C17.8125 169.164 17.5977 168.465 17.4414 167.652C17.293 166.84 17.2188 165.898 17.2188 164.828V162.039C17.2188 160.695 17.3359 159.562 17.5703 158.641C17.8047 157.711 18.1328 156.957 18.5547 156.379C18.9766 155.793 19.4766 155.367 20.0547 155.102C20.6406 154.836 21.2891 154.703 22 154.703C22.5625 154.703 23.0898 154.789 23.582 154.961C24.0742 155.125 24.5156 155.387 24.9062 155.746C25.2969 156.105 25.6328 156.574 25.9141 157.152C26.1953 157.723 26.4062 158.414 26.5469 159.227C26.6953 160.031 26.7695 160.969 26.7695 162.039ZM24.0508 165.238V161.605C24.0508 160.934 24.0195 160.34 23.957 159.824C23.8945 159.309 23.8086 158.871 23.6992 158.512C23.5977 158.152 23.4609 157.863 23.2891 157.645C23.1172 157.418 22.9219 157.254 22.7031 157.152C22.4922 157.043 22.2578 156.988 22 156.988C21.6797 156.988 21.3906 157.07 21.1328 157.234C20.8828 157.398 20.668 157.664 20.4883 158.031C20.3164 158.391 20.1836 158.867 20.0898 159.461C19.9961 160.047 19.9492 160.762 19.9492 161.605V165.238C19.9492 165.918 19.9805 166.516 20.043 167.031C20.1055 167.547 20.1953 167.992 20.3125 168.367C20.4297 168.734 20.5703 169.035 20.7344 169.27C20.8984 169.496 21.0859 169.664 21.2969 169.773C21.5156 169.883 21.7539 169.938 22.0117 169.938C22.3398 169.938 22.6289 169.852 22.8789 169.68C23.1367 169.508 23.3516 169.238 23.5234 168.871C23.6953 168.496 23.8242 168.008 23.9102 167.406C24.0039 166.805 24.0508 166.082 24.0508 165.238ZM39.0508 169.703V172H29.2305V170.02L33.8828 163.984C34.3906 163.305 34.7812 162.719 35.0547 162.227C35.3359 161.727 35.5312 161.277 35.6406 160.879C35.75 160.48 35.8047 160.09 35.8047 159.707C35.8047 159.176 35.7305 158.707 35.582 158.301C35.4414 157.895 35.2305 157.578 34.9492 157.352C34.668 157.117 34.3242 157 33.918 157C33.4102 157 32.9922 157.137 32.6641 157.41C32.3359 157.676 32.0938 158.047 31.9375 158.523C31.7812 158.992 31.7031 159.531 31.7031 160.141H28.9727C28.9727 159.141 29.1641 158.23 29.5469 157.41C29.9375 156.582 30.5039 155.926 31.2461 155.441C31.9883 154.949 32.8906 154.703 33.9531 154.703C34.9375 154.703 35.7695 154.895 36.4492 155.277C37.1367 155.66 37.6562 156.203 38.0078 156.906C38.3672 157.609 38.5469 158.445 38.5469 159.414C38.5469 159.945 38.4727 160.477 38.3242 161.008C38.1836 161.531 37.9844 162.051 37.7266 162.566C37.4688 163.082 37.1602 163.602 36.8008 164.125C36.4414 164.648 36.0391 165.18 35.5938 165.719L32.6523 169.703H39.0508Z" fill="black"/>
</svg>
