<svg width="40" height="450" viewBox="0 0 40 450" fill="none" xmlns="http://www.w3.org/2000/svg">
<rect y="450" width="450" height="4" transform="rotate(-90 0 450)" fill="#F5F5F5"/>
<rect y="450" width="150" height="4" transform="rotate(-90 0 450)" fill="black"/>
<path d="M26.7695 312.039V314.828C26.7695 316.164 26.6523 317.305 26.418 318.25C26.1914 319.188 25.8672 319.949 25.4453 320.535C25.0312 321.121 24.5312 321.551 23.9453 321.824C23.3672 322.098 22.7227 322.234 22.0117 322.234C21.4492 322.234 20.9219 322.148 20.4297 321.977C19.9375 321.805 19.4922 321.535 19.0938 321.168C18.7031 320.801 18.3672 320.328 18.0859 319.75C17.8125 319.164 17.5977 318.465 17.4414 317.652C17.293 316.84 17.2188 315.898 17.2188 314.828V312.039C17.2188 310.695 17.3359 309.562 17.5703 308.641C17.8047 307.711 18.1328 306.957 18.5547 306.379C18.9766 305.793 19.4766 305.367 20.0547 305.102C20.6406 304.836 21.2891 304.703 22 304.703C22.5625 304.703 23.0898 304.789 23.582 304.961C24.0742 305.125 24.5156 305.387 24.9062 305.746C25.2969 306.105 25.6328 306.574 25.9141 307.152C26.1953 307.723 26.4062 308.414 26.5469 309.227C26.6953 310.031 26.7695 310.969 26.7695 312.039ZM24.0508 315.238V311.605C24.0508 310.934 24.0195 310.34 23.957 309.824C23.8945 309.309 23.8086 308.871 23.6992 308.512C23.5977 308.152 23.4609 307.863 23.2891 307.645C23.1172 307.418 22.9219 307.254 22.7031 307.152C22.4922 307.043 22.2578 306.988 22 306.988C21.6797 306.988 21.3906 307.07 21.1328 307.234C20.8828 307.398 20.668 307.664 20.4883 308.031C20.3164 308.391 20.1836 308.867 20.0898 309.461C19.9961 310.047 19.9492 310.762 19.9492 311.605V315.238C19.9492 315.918 19.9805 316.516 20.043 317.031C20.1055 317.547 20.1953 317.992 20.3125 318.367C20.4297 318.734 20.5703 319.035 20.7344 319.27C20.8984 319.496 21.0859 319.664 21.2969 319.773C21.5156 319.883 21.7539 319.938 22.0117 319.938C22.3398 319.938 22.6289 319.852 22.8789 319.68C23.1367 319.508 23.3516 319.238 23.5234 318.871C23.6953 318.496 23.8242 318.008 23.9102 317.406C24.0039 316.805 24.0508 316.082 24.0508 315.238ZM32.0547 312.168H33.5195C34.0195 312.168 34.4297 312.059 34.75 311.84C35.0781 311.613 35.3203 311.305 35.4766 310.914C35.6328 310.523 35.7109 310.07 35.7109 309.555C35.7109 309.023 35.6367 308.566 35.4883 308.184C35.3477 307.801 35.1328 307.508 34.8438 307.305C34.5625 307.102 34.2031 307 33.7656 307C33.3906 307 33.0547 307.098 32.7578 307.293C32.4609 307.48 32.2266 307.754 32.0547 308.113C31.8906 308.465 31.8086 308.883 31.8086 309.367H29.0781C29.0781 308.461 29.2773 307.656 29.6758 306.953C30.0742 306.25 30.6211 305.699 31.3164 305.301C32.0195 304.895 32.8203 304.691 33.7188 304.691C34.6484 304.691 35.4648 304.875 36.168 305.242C36.8789 305.609 37.4336 306.152 37.832 306.871C38.2383 307.59 38.4414 308.48 38.4414 309.543C38.4414 310.035 38.3477 310.531 38.1602 311.031C37.9727 311.531 37.6914 311.988 37.3164 312.402C36.9492 312.809 36.4844 313.137 35.9219 313.387C35.3672 313.637 34.7109 313.762 33.9531 313.762H32.0547V312.168ZM32.0547 314.418V312.848H33.9531C34.8281 312.848 35.5625 312.965 36.1562 313.199C36.7578 313.426 37.2383 313.746 37.5977 314.16C37.9648 314.566 38.2305 315.031 38.3945 315.555C38.5586 316.078 38.6406 316.633 38.6406 317.219C38.6406 318.016 38.5156 318.727 38.2656 319.352C38.0156 319.969 37.668 320.496 37.2227 320.934C36.7773 321.363 36.2539 321.688 35.6523 321.906C35.0586 322.125 34.4102 322.234 33.707 322.234C33.0742 322.234 32.4727 322.133 31.9023 321.93C31.332 321.727 30.8242 321.426 30.3789 321.027C29.9414 320.621 29.5938 320.117 29.3359 319.516C29.0859 318.906 28.9609 318.199 28.9609 317.395H31.6797C31.6797 317.895 31.7656 318.336 31.9375 318.719C32.1094 319.102 32.3477 319.402 32.6523 319.621C32.9648 319.832 33.3281 319.938 33.7422 319.938C34.1875 319.938 34.5703 319.832 34.8906 319.621C35.2188 319.41 35.4688 319.102 35.6406 318.695C35.8203 318.289 35.9102 317.797 35.9102 317.219C35.9102 316.57 35.8125 316.039 35.6172 315.625C35.4297 315.211 35.1602 314.906 34.8086 314.711C34.457 314.516 34.0312 314.418 33.5312 314.418H32.0547Z" fill="black"/>
</svg>
