<svg width="48" height="48" viewBox="0 0 48 48" fill="none" xmlns="http://www.w3.org/2000/svg">
<path d="M24 0C10.7581 0 0 10.7753 0 24.0384C0 36.0785 8.8664 46.0427 20.4141 47.7802L21.6669 47.9701V29.0279H15.9972V25.1823H21.6669V20.0754C21.6669 16.9307 22.4203 14.8595 23.6676 13.56C24.9149 12.2606 26.7578 11.6052 29.3224 11.6052C31.3731 11.6052 32.1709 11.7296 32.9297 11.8229V14.9707H30.2599C28.7451 14.9707 27.5023 15.8172 26.8572 16.9447C26.2122 18.0722 26.0114 19.4185 26.0114 20.7903V25.1802H32.6911L32.0966 29.0258H26.0114V48L27.2493 47.8314C38.9611 46.2405 48 36.1962 48 24.0384C48 10.7753 37.2419 0 24 0ZM24 2.18531C36.0628 2.18531 45.8182 11.9563 45.8182 24.0384C45.8182 34.6697 38.2209 43.4132 28.1932 45.3815V31.2111H33.9673L35.2351 22.9948H28.1932V20.7903C28.1932 19.6567 28.4003 18.641 28.7493 18.0309C29.0983 17.4209 29.4348 17.156 30.2599 17.156H35.1115V9.84457L34.1655 9.71652C33.5112 9.62784 32.0173 9.41988 29.3224 9.41988C26.3736 9.41988 23.8424 10.2245 22.0952 12.0448C20.3479 13.8652 19.4851 16.5757 19.4851 20.0754V22.997H13.8153V31.2132H19.4851V45.3132C9.61854 43.2198 2.18182 34.5546 2.18182 24.0384C2.18182 11.9563 11.9372 2.18531 24 2.18531Z" fill="white"/>
</svg>
