<svg width="48" height="48" viewBox="0 0 48 48" fill="none" xmlns="http://www.w3.org/2000/svg">
<path d="M14.1818 0C6.36271 0 0 6.36271 0 14.1818V33.8182C0 41.6373 6.36271 48 14.1818 48H33.8182C41.6373 48 48 41.6373 48 33.8182V14.1818C48 6.36271 41.6373 0 33.8182 0H14.1818ZM14.1818 2.18182H33.8182C40.458 2.18182 45.8182 7.54202 45.8182 14.1818V33.8182C45.8182 40.458 40.458 45.8182 33.8182 45.8182H14.1818C7.54202 45.8182 2.18182 40.458 2.18182 33.8182V14.1818C2.18182 7.54202 7.54202 2.18182 14.1818 2.18182ZM37.0909 8.72727C36.5123 8.72727 35.9573 8.95714 35.5481 9.36631C35.139 9.77548 34.9091 10.3304 34.9091 10.9091C34.9091 11.4877 35.139 12.0427 35.5481 12.4519C35.9573 12.861 36.5123 13.0909 37.0909 13.0909C37.6696 13.0909 38.2245 12.861 38.6337 12.4519C39.0429 12.0427 39.2727 11.4877 39.2727 10.9091C39.2727 10.3304 39.0429 9.77548 38.6337 9.36631C38.2245 8.95714 37.6696 8.72727 37.0909 8.72727ZM24 12C17.3855 12 12 17.3855 12 24C12 30.6145 17.3855 36 24 36C30.6145 36 36 30.6145 36 24C36 17.3855 30.6145 12 24 12ZM24 14.1818C29.4354 14.1818 33.8182 18.5646 33.8182 24C33.8182 29.4354 29.4354 33.8182 24 33.8182C18.5646 33.8182 14.1818 29.4354 14.1818 24C14.1818 18.5646 18.5646 14.1818 24 14.1818Z" fill="white"/>
</svg>
