<svg width="36" height="36" viewBox="0 0 36 36" fill="none" xmlns="http://www.w3.org/2000/svg">
<path d="M21.4149 0C21.1206 0 20.8395 0.113012 20.6384 0.312152L13.638 7.24433C13.2029 7.67515 13.5325 8.3795 14.1691 8.3795C14.3019 8.3795 14.4321 8.34584 14.5457 8.28217L23.1211 3.47467C23.2652 3.39391 23.4279 3.346 23.5958 3.33489L35.0093 2.57925C35.5659 2.5424 35.9971 2.11313 35.9971 1.59593V0.985821C35.9971 0.441367 35.5209 0 34.9335 0H21.4149Z" fill="white"/>
<path d="M10.8368 9.23736C10.737 9.22415 10.6358 9.22415 10.536 9.23736L4.70896 10.0089C4.48115 10.0391 4.27003 10.1369 4.1073 10.2878L2.37871 11.89C1.77463 12.4499 2.20246 13.4072 3.05675 13.4072C3.31106 13.4072 3.55496 13.3136 3.73479 13.1469L4.95053 12.02C5.15 11.8352 5.42052 11.7313 5.70261 11.7313H10.6864L34.9896 14.1448C35.5293 14.1984 36 13.8064 36 13.3033C36 12.8821 35.6659 12.525 35.216 12.4654L10.8368 9.23736Z" fill="white"/>
<path d="M15.0968 25.1014C15.1698 25.1261 15.2456 25.1432 15.3227 25.1525L34.7988 27.5071C35.4355 27.5841 36 27.1247 36 26.5296V25.999C36 25.506 35.6071 25.0888 35.0801 25.0222L17.0306 22.7409C16.5036 22.6743 16.1107 22.2571 16.1107 21.7641V20.677C16.1107 20.3264 15.9098 20.0021 15.5831 19.8255L5.61073 14.4337C5.3861 14.3122 5.12124 14.2712 4.86623 14.3185L1.59677 14.9246C1.09963 15.0167 0.741769 15.4213 0.741769 15.8913V17.9611C0.741769 18.2605 0.888641 18.5438 1.14094 18.7309L5.12548 21.6854C5.21592 21.7525 5.31758 21.8054 5.42643 21.8421L15.0968 25.1014Z" fill="white"/>
<path d="M21.9247 27.675C21.6723 27.6604 21.4225 27.7296 21.2202 27.8703L18.2652 29.9244C18.0423 30.0794 17.7627 30.1471 17.4865 30.113L5.09305 28.5813C4.65068 28.5267 4.29217 28.2218 4.19536 27.818L2.84394 22.1813C2.69383 21.5552 1.94772 21.2272 1.32883 21.514C0.968499 21.681 0.740314 22.0226 0.740314 22.396V29.0955C0.740314 29.2486 0.70187 29.3995 0.628027 29.5364L0.112289 30.4925C-0.0584025 30.8089 -0.0330841 31.1858 0.178633 31.4802L1.64437 33.518L2.27912 34.6947C2.4462 35.0044 2.77635 35.2102 3.14885 35.2367L13.8134 35.9971C14.123 36.0192 14.4275 35.9148 14.6471 35.7113L14.8937 35.4827C15.0932 35.2978 15.3637 35.1939 15.6458 35.1939H19.285C19.567 35.1939 19.8376 35.0901 20.037 34.9052L22.0964 32.9964C22.3133 32.7954 22.6132 32.6909 22.9192 32.7098L34.8642 33.4479C35.4781 33.4859 35.9985 33.0346 35.9985 32.4643V29.4165C35.9985 28.8959 35.5618 28.465 35.0013 28.4326L21.9247 27.675Z" fill="white"/>
</svg>
