<svg width="48" height="40" viewBox="0 0 48 40" fill="none" xmlns="http://www.w3.org/2000/svg">
<path d="M32.8501 0.25C27.1088 0.25 22.44 4.91875 22.44 10.66C22.44 11.005 22.5263 11.3425 22.56 11.68C15.4613 11.0013 9.1838 7.58125 4.92005 2.35C4.7213 2.09875 4.4138 1.96375 4.0913 1.98625C3.77255 2.00875 3.48755 2.1925 3.33005 2.47C2.4338 4.01125 1.92005 5.785 1.92005 7.69C1.92005 9.99625 2.74505 12.1075 4.02005 13.84C3.77255 13.7312 3.50255 13.6713 3.27005 13.54C2.9738 13.3825 2.61755 13.39 2.3288 13.5625C2.04005 13.735 1.8638 14.0463 1.86005 14.38V14.5C1.86005 18.0362 3.69005 21.1075 6.39005 22.99C6.36005 22.9862 6.33005 22.9975 6.30005 22.99C5.97005 22.9338 5.6363 23.05 5.41505 23.3012C5.1938 23.5525 5.12255 23.9012 5.22005 24.22C6.29255 27.5537 9.03005 30.1 12.42 31.03C9.72005 32.635 6.5888 33.58 3.21005 33.58C2.4788 33.58 1.77755 33.5425 1.08005 33.46C0.630046 33.4 0.198796 33.6625 0.0487962 34.09C-0.104954 34.5175 0.0637962 34.9937 0.450046 35.23C4.7813 38.0087 9.92255 39.64 15.45 39.64C24.4088 39.64 31.4363 35.8975 36.1501 30.55C40.8638 25.2025 43.3201 18.2575 43.3201 11.77C43.3201 11.4963 43.2976 11.23 43.2901 10.96C45.0488 9.61375 46.6201 8.035 47.8501 6.19C48.0938 5.83375 48.0676 5.3575 47.7863 5.0275C47.5088 4.6975 47.0401 4.59625 46.6501 4.78C46.1551 5.00125 45.5776 5.02375 45.0601 5.2C45.7426 4.28875 46.3276 3.30625 46.6801 2.2C46.8001 1.82125 46.6688 1.405 46.3576 1.1575C46.0463 0.91375 45.6113 0.88375 45.2701 1.09C43.6313 2.06125 41.8163 2.74375 39.9001 3.16C38.0401 1.42 35.5913 0.25 32.8501 0.25ZM32.8501 2.17C35.2988 2.17 37.5113 3.21625 39.0601 4.87C39.2926 5.11 39.6338 5.21125 39.9601 5.14C41.2126 4.8925 42.4013 4.52875 43.5601 4.06C42.8926 4.96 42.0676 5.72875 41.1001 6.31C40.6613 6.52375 40.4551 7.03 40.6163 7.49125C40.7738 7.94875 41.2538 8.215 41.7301 8.11C42.6901 7.99375 43.5451 7.60375 44.4601 7.36C43.6388 8.24875 42.7388 9.05125 41.7601 9.76C41.4938 9.955 41.3476 10.27 41.3701 10.6C41.3851 10.99 41.4001 11.3763 41.4001 11.77C41.4001 17.77 39.0976 24.2837 34.7101 29.26C30.3226 34.2362 23.88 37.72 15.45 37.72C11.6213 37.72 8.0063 36.8725 4.74005 35.38C8.79005 35.0687 12.525 33.6362 15.54 31.27C15.855 31.0187 15.9788 30.5987 15.8513 30.2162C15.7238 29.8337 15.3713 29.5712 14.97 29.56C11.805 29.5037 9.1538 27.6625 7.74005 25.06C7.79255 25.06 7.83755 25.06 7.89005 25.06C8.8388 25.06 9.7763 24.94 10.65 24.7C11.07 24.5763 11.3588 24.1862 11.3438 23.7475C11.3288 23.3087 11.0175 22.9338 10.59 22.84C7.1738 22.15 4.61255 19.3675 4.02005 15.91C4.98755 16.2437 5.97755 16.5063 7.05005 16.54C7.4888 16.5662 7.8863 16.2925 8.0213 15.8762C8.1563 15.46 7.9913 15.0025 7.62005 14.77C5.34005 13.2437 3.84005 10.645 3.84005 7.69C3.84005 6.595 4.12505 5.59 4.50005 4.63C9.30005 9.89875 16.02 13.3975 23.61 13.78C23.91 13.795 24.2025 13.6712 24.3975 13.4425C24.5925 13.21 24.6675 12.9025 24.6 12.61C24.4538 11.9875 24.36 11.3275 24.36 10.66C24.36 5.9575 28.1476 2.17 32.8501 2.17Z" fill="white"/>
</svg>
